<svg width="3600" height="1096" viewBox="0 0 3600 1096" fill="none" xmlns="http://www.w3.org/2000/svg">
<rect width="3600" height="1096" fill="white"/>
<path fill-rule="evenodd" clip-rule="evenodd" d="M748.334 500.678L712.583 538.127L668.419 491.866L632.668 454.416L588.504 408.155L624.256 370.705L668.419 416.967L704.171 454.416L748.334 500.678Z" fill="#8549B9"/>
<path fill-rule="evenodd" clip-rule="evenodd" d="M972.307 548.04L865.579 659.838L847.176 679.115L767.261 595.404L803.012 557.954L847.176 604.216L900.804 548.04L847.177 491.865L793.549 548.041L757.797 585.491L713.635 631.751L677.883 594.301L722.046 548.041L757.797 510.591L829.301 435.691L847.177 416.966L972.307 548.04Z" fill="#8549B9"/>
<path fill-rule="evenodd" clip-rule="evenodd" d="M543.29 548.04L579.041 510.591L623.205 464.329L658.956 501.779L614.793 548.04L579.041 585.49L534.878 631.751L499.126 594.302L543.29 548.04Z" fill="#8549B9"/>
<path fill-rule="evenodd" clip-rule="evenodd" d="M409.747 595.403L445.499 557.954L489.662 604.215L525.414 641.665L569.577 687.926L533.826 725.376L489.662 679.114L453.911 641.665L409.747 595.403Z" fill="#8549B9"/>
<path fill-rule="evenodd" clip-rule="evenodd" d="M793.55 360.791L730.459 426.879L713.634 444.504L677.882 407.054L722.047 360.791L668.42 304.617L614.792 360.792L579.04 398.242L534.878 444.502L499.126 407.053L543.289 360.793L579.04 323.343L650.544 248.442L668.42 229.718L793.55 360.791Z" fill="#8549B9"/>
<path fill-rule="evenodd" clip-rule="evenodd" d="M658.957 689.028L614.793 735.289L579.042 772.739L489.663 866.363L471.787 847.638L382.408 754.013L364.532 735.288L444.447 651.577L480.199 689.028L436.036 735.289L489.663 791.464L543.29 735.289L579.042 697.839L623.205 651.578L658.957 689.028Z" fill="#8549B9"/>
<path fill-rule="evenodd" clip-rule="evenodd" d="M480.199 501.779L436.035 548.041L400.284 585.49L310.905 679.115L293.03 660.39L185.774 548.04L310.904 416.966L328.78 435.691L390.82 500.678L355.069 538.128L310.905 491.866L257.278 548.041L310.905 604.215L364.533 548.041L400.284 510.591L444.448 464.33L480.199 501.779Z" fill="#8549B9"/>
<path fill-rule="evenodd" clip-rule="evenodd" d="M668.42 604.215L704.171 641.664L793.55 735.289L775.674 754.014L686.294 847.639L668.419 866.364L588.504 782.653L624.256 745.202L668.42 791.463L722.047 735.289L668.42 679.114L632.668 641.664L588.505 595.403L624.256 557.953L668.42 604.215Z" fill="#8549B9"/>
<path fill-rule="evenodd" clip-rule="evenodd" d="M507.538 248.443L569.577 313.429L533.826 350.879L489.662 304.617L436.035 360.792L481.25 408.155L489.662 416.966L525.414 454.417L569.577 500.677L533.826 538.127L489.663 491.867L453.911 454.416L427.623 426.879L364.532 360.792L489.662 229.718L507.538 248.443Z" fill="#8549B9"/>
<path d="M870.84 69H287.241C183.831 69 100 152.831 100 256.241V839.84C100 943.251 183.831 1027.08 287.241 1027.08H870.84C974.251 1027.08 1058.08 943.251 1058.08 839.84V256.241C1058.08 152.831 974.251 69 870.84 69Z" stroke="#8549B9" stroke-width="54.9244" stroke-linejoin="round"/>
<path d="M1382.5 299.412H1276.19L1464.52 833.755H1584.15L1772.73 299.412H1666.16L1527.2 719.998H1521.72L1382.5 299.412Z" fill="#282828"/>
<path d="M1802.24 833.755H1896.79V432.998H1802.24V833.755ZM1849.77 376.12C1879.81 376.12 1904.37 353.16 1904.37 324.981C1904.37 296.542 1879.81 273.582 1849.77 273.582C1819.48 273.582 1794.92 296.542 1794.92 324.981C1794.92 353.16 1819.48 376.12 1849.77 376.12Z" fill="#282828"/>
<path d="M2274.34 538.927C2261.28 471.091 2206.95 427.78 2112.92 427.78C2016.28 427.78 1950.45 475.265 1950.72 549.363C1950.45 607.807 1986.5 646.422 2063.56 662.337L2131.99 676.687C2168.82 684.776 2186.06 699.647 2186.06 722.347C2186.06 749.742 2156.28 770.354 2111.36 770.354C2068 770.354 2039.79 751.568 2031.69 715.563L1939.48 724.434C1951.24 798.01 2013.14 841.582 2111.62 841.582C2211.92 841.582 2282.7 789.661 2282.96 713.737C2282.7 656.597 2245.87 621.635 2170.13 605.198L2101.69 590.587C2060.94 581.455 2044.75 567.366 2045.01 544.145C2044.75 517.011 2074.79 498.225 2114.23 498.225C2157.85 498.225 2180.83 521.968 2188.15 548.32L2274.34 538.927Z" fill="#282828"/>
<path d="M2418.71 598.936C2418.71 541.014 2454.76 507.618 2505.43 507.618C2555.06 507.618 2584.31 539.188 2584.31 593.196V833.755H2678.87V578.585C2678.87 481.788 2624.02 427.78 2540.69 427.78C2479.05 427.78 2439.87 455.697 2421.32 501.095H2416.62V299.412H2324.16V833.755H2418.71V598.936Z" fill="#282828"/>
<path d="M2833.03 598.936C2833.03 541.014 2868.03 507.618 2917.92 507.618C2966.76 507.618 2996.02 539.71 2996.02 593.196V833.755H3090.57V578.585C3090.83 482.571 3035.98 427.78 2953.18 427.78C2893.1 427.78 2851.83 456.48 2833.55 501.095H2828.85V432.998H2738.47V833.755H2833.03V598.936Z" fill="#282828"/>
<path d="M3405.63 665.207C3405.63 726.26 3362.01 756.526 3320.22 756.526C3274.77 756.526 3244.47 724.434 3244.47 673.556V432.998H3149.92V688.167C3149.92 784.443 3204.77 838.973 3283.65 838.973C3343.73 838.973 3386.04 807.403 3404.33 762.527H3408.51V833.755H3500.19V432.998H3405.63V665.207Z" fill="#282828"/>
</svg>
