<svg width="1328" height="406" viewBox="0 0 1328 406" fill="none" xmlns="http://www.w3.org/2000/svg">
<rect width="1328" height="406" fill="white"/>
<g clip-path="url(#clip0)">
<rect width="0" height="0" transform="translate(92.9504 66.3368)" fill="white"/>
</g>
<path fill-rule="evenodd" clip-rule="evenodd" d="M102.268 36.278C69.6888 36.278 43.278 62.6887 43.278 95.268V310.732C43.278 343.311 69.6887 369.722 102.268 369.722H317.732C350.311 369.722 376.722 343.311 376.722 310.732V95.268C376.722 62.6887 350.311 36.278 317.732 36.278H102.268ZM23 95.268C23 51.4895 58.4895 16 102.268 16H317.732C361.51 16 397 51.4895 397 95.268V310.732C397 354.511 361.51 390 317.732 390H102.268C58.4895 390 23 354.511 23 310.732V95.268Z" fill="#8549B9"/>
<path d="M522.292 107.55H483L552.606 305.106H596.822L666.525 107.55H627.136L575.776 263.048H573.749L522.292 107.55Z" fill="#4C4C4C"/>
<path d="M677.429 305.106H712.377V156.939H677.429V305.106ZM695 135.91C706.102 135.91 715.177 127.421 715.177 117.003C715.177 106.489 706.102 98 695 98C683.801 98 674.726 106.489 674.726 117.003C674.726 127.421 683.801 135.91 695 135.91Z" fill="#4C4C4C"/>
<path d="M851.922 196.103C847.095 171.023 827.015 155.01 792.26 155.01C756.54 155.01 732.211 172.566 732.308 199.961C732.211 221.569 745.534 235.846 774.014 241.73L799.308 247.035C812.92 250.026 819.292 255.524 819.292 263.916C819.292 274.045 808.286 281.666 791.681 281.666C775.655 281.666 765.228 274.72 762.236 261.408L728.157 264.688C732.501 291.891 755.381 308 791.777 308C828.849 308 855.012 288.804 855.108 260.733C855.012 239.608 841.4 226.682 813.403 220.604L788.109 215.203C773.048 211.826 767.063 206.617 767.159 198.032C767.063 188 778.165 181.055 792.743 181.055C808.865 181.055 817.361 189.833 820.064 199.576L851.922 196.103Z" fill="#4C4C4C"/>
<path d="M905.281 218.289C905.281 196.875 918.604 184.527 937.333 184.527C955.675 184.527 966.488 196.199 966.488 216.167V305.106H1001.44V210.765C1001.44 174.977 981.162 155.01 950.366 155.01C927.582 155.01 913.101 165.331 906.246 182.116H904.508V107.55H870.333V305.106H905.281V218.289Z" fill="#4C4C4C"/>
<path d="M1058.41 218.289C1058.41 196.875 1071.35 184.527 1089.79 184.527C1107.84 184.527 1118.66 196.392 1118.66 216.167V305.106H1153.6V210.765C1153.7 175.267 1133.43 155.01 1102.82 155.01C1080.62 155.01 1065.37 165.621 1058.61 182.116H1056.87V156.939H1023.47V305.106H1058.41V218.289Z" fill="#4C4C4C"/>
<path d="M1270.05 242.791C1270.05 265.363 1253.93 276.553 1238.48 276.553C1221.68 276.553 1210.49 264.688 1210.49 245.878V156.939H1175.54V251.28C1175.54 286.875 1195.81 307.035 1224.97 307.035C1247.17 307.035 1262.81 295.363 1269.57 278.772H1271.11V305.106H1305V156.939H1270.05V242.791Z" fill="#4C4C4C"/>
<defs>
<clipPath id="clip0">
<rect width="0" height="0" fill="white" transform="translate(92.9504 66.3368)"/>
</clipPath>
</defs>
</svg>
