<?xml version="1.0" encoding="UTF-8" standalone="no"?>
<svg
   xmlns:sketch="http://www.bohemiancoding.com/sketch/ns"
   xmlns:dc="http://purl.org/dc/elements/1.1/"
   xmlns:cc="http://creativecommons.org/ns#"
   xmlns:rdf="http://www.w3.org/1999/02/22-rdf-syntax-ns#"
   xmlns:svg="http://www.w3.org/2000/svg"
   xmlns="http://www.w3.org/2000/svg"
   xmlns:sodipodi="http://sodipodi.sourceforge.net/DTD/sodipodi-0.dtd"
   xmlns:inkscape="http://www.inkscape.org/namespaces/inkscape"
   width="1024"
   height="1024"
   viewBox="0 0 270.93333 270.93334"
   version="1.1"
   id="svg8"
   inkscape:version="1.0 (262b4497e3, 2020-09-04)"
   sodipodi:docname="vishnu.svg">
  <defs
     id="defs2">
    <marker
       style="overflow:visible"
       id="Arrow2Mend"
       refX="0"
       refY="0"
       orient="auto"
       inkscape:stockid="Arrow2Mend"
       inkscape:isstock="true">
      <path
         transform="scale(-0.6)"
         d="M 8.7185878,4.0337352 -2.2072895,0.01601326 8.7185884,-4.0017078 c -1.7454984,2.3720609 -1.7354408,5.6174519 -6e-7,8.035443 z"
         style="fill:#ffffff;fill-opacity:1;fill-rule:evenodd;stroke:#800080;stroke-width:0.625;stroke-linejoin:round;stroke-opacity:1"
         id="path961" />
    </marker>
    <marker
       style="overflow:visible"
       id="Arrow1Lstart"
       refX="0"
       refY="0"
       orient="auto"
       inkscape:stockid="Arrow1Lstart"
       inkscape:isstock="true">
      <path
         transform="matrix(0.8,0,0,0.8,10,0)"
         style="fill:#ffffff;fill-opacity:1;fill-rule:evenodd;stroke:#800080;stroke-width:1pt;stroke-opacity:1"
         d="M 0,0 5,-5 -12.5,0 5,5 Z"
         id="path934" />
    </marker>
  </defs>
  <sodipodi:namedview
     id="base"
     pagecolor="#ffffff"
     bordercolor="#666666"
     borderopacity="1.0"
     inkscape:pageopacity="0.0"
     inkscape:pageshadow="2"
     inkscape:zoom="0.51122208"
     inkscape:cx="305.23891"
     inkscape:cy="481.5283"
     inkscape:document-units="mm"
     inkscape:current-layer="g1282"
     inkscape:document-rotation="0"
     showgrid="false"
     inkscape:window-width="1920"
     inkscape:window-height="1016"
     inkscape:window-x="1024"
     inkscape:window-y="27"
     inkscape:window-maximized="1"
     units="px" />
  <metadata
     id="metadata5">
    <rdf:RDF>
      <cc:Work
         rdf:about="">
        <dc:format>image/svg+xml</dc:format>
        <dc:type
           rdf:resource="http://purl.org/dc/dcmitype/StillImage" />
        <dc:title></dc:title>
      </cc:Work>
    </rdf:RDF>
  </metadata>
  <g
     inkscape:label="Layer 1"
     inkscape:groupmode="layer"
     id="layer1">
    <g
       id="g887"
       transform="matrix(6.6606078,0,0,6.9769954,-920.25704,-183.7815)" />
    <g
       id="g1242">
      <g
         id="g1282"
         transform="matrix(0.24755116,0,0,0.24755116,-108.70114,32.263527)">
        <g
           stroke="none"
           stroke-width="1"
           fill="none"
           fill-rule="evenodd"
           sketch:type="MSPage"
           id="g860"
           transform="matrix(9.2994123,0,0,9.7411457,521.14827,-70.740053)"
           style="fill:#800080">
          <g
             sketch:type="MSArtboardGroup"
             fill="#000000"
             id="g858"
             style="fill:#8549b9;fill-opacity:1">
            <path
               d="m 50.309552,36.822012 v 5.810997 h 7.178291 5.810998 7.178291 v -5.810997 h -7.178291 -5.810998 z"
               sketch:type="MSShapeGroup"
               transform="matrix(-0.70710678,-0.70710678,-0.70710678,0.70710678,131.18948,54.34046)"
               id="path840"
               style="fill:#8549b9;fill-opacity:1" />
            <path
               d="m 68.231214,38.77947 v 17.347536 2.991126 h 12.989288 v -5.810998 h -7.178291 v -8.716667 h 8.716497 v 8.716667 5.810998 7.17812 h 5.810997 V 59.118132 53.307134 41.684968 38.77947 Z"
               sketch:type="MSShapeGroup"
               transform="matrix(-0.70710678,-0.70710678,-0.70710678,0.70710678,170.98783,70.82548)"
               id="path842"
               style="fill:#8549b9;fill-opacity:1" />
            <path
               d="M 53.026351,52.905499 V 47.094501 39.91621 h -5.810997 v 7.178291 5.810998 7.178291 h 5.810997 z"
               sketch:type="MSShapeGroup"
               transform="matrix(-0.70710678,-0.70710678,-0.70710678,0.70710678,120.91699,50.085456)"
               id="path844"
               style="fill:#8549b9;fill-opacity:1" />
            <path
               d="M 49.932153,63.177988 V 57.36699 h -7.178291 -5.810997 -7.178291 v 5.810998 h 7.178291 5.810997 z"
               sketch:type="MSShapeGroup"
               transform="matrix(-0.70710678,-0.70710678,-0.70710678,0.70710678,110.6445,45.830452)"
               id="path846"
               style="fill:#8549b9;fill-opacity:1" />
            <path
               d="m 47.686224,18.234479 v 10.254702 2.734758 h 5.810997 v -7.178462 h 8.716496 v 8.716667 5.810997 7.17812 h 5.810998 v -7.17812 -5.810997 -11.622166 -2.905499 z"
               sketch:type="MSShapeGroup"
               transform="matrix(-0.70710678,-0.70710678,-0.70710678,0.70710678,121.38784,50.280489)"
               id="path848"
               style="fill:#8549b9;fill-opacity:1" />
            <path
               d="m 32.216942,54.248654 v 7.178291 5.810998 14.527493 h 2.905499 14.527664 2.905499 V 68.776148 h -5.811169 v 7.178291 h -8.716496 v -8.716496 -5.810998 -7.178291 z"
               sketch:type="MSShapeGroup"
               transform="matrix(-0.70710678,-0.70710678,-0.70710678,0.70710678,120.44614,49.890423)"
               id="path850"
               style="fill:#8549b9;fill-opacity:1" />
            <path
               d="m 11.671951,33.703664 v 7.178291 5.810997 14.527494 H 14.57745 32.010613 V 40.881955 h -2.905499 -10.08396 v 5.810997 h 7.178291 v 8.716496 h -8.716496 v -8.716496 -5.810997 -7.178291 z"
               sketch:type="MSShapeGroup"
               transform="matrix(-0.70710678,-0.70710678,-0.70710678,0.70710678,70.846142,29.345433)"
               id="path852"
               style="fill:#8549b9;fill-opacity:1" />
            <path
               d="M 64.435533,57.837787 H 58.624535 44.097042 v 2.905498 14.527665 2.905499 H 57.08633 V 72.36528 h -7.178291 v -8.716496 h 8.716496 5.810998 7.178291 v -5.810997 z"
               sketch:type="MSShapeGroup"
               transform="matrix(-0.70710678,-0.70710678,-0.70710678,0.70710678,146.8537,60.828793)"
               id="path854"
               style="fill:#8549b9;fill-opacity:1" />
            <path
               d="m 53.239117,21.823661 h -10.08379 v 5.810997 h 7.178291 v 8.716497 h -7.349203 -1.367293 -5.811169 -7.178119 v 5.810997 h 7.178119 5.811169 4.272792 10.254701 V 21.823661 Z"
               sketch:type="MSShapeGroup"
               transform="matrix(-0.70710678,-0.70710678,-0.70710678,0.70710678,94.980212,39.342092)"
               id="path856"
               style="fill:#8549b9;fill-opacity:1" />
          </g>
        </g>
        <rect
           style="fill:#ffffff;fill-opacity:0;stroke:#8549b9;stroke-width:58.7034;stroke-linecap:butt;stroke-linejoin:round;stroke-miterlimit:4;stroke-dasharray:none;paint-order:markers fill stroke;stroke-opacity:1"
           id="rect1253"
           width="1023.9999"
           height="1024"
           x="475.24268"
           y="-95.682533"
           ry="200.12367"
           rx="200.12367" />
      </g>
    </g>
  </g>
</svg>
